<svg xmlns="http://www.w3.org/2000/svg" viewBox="0 0 96 96"><defs><style>.cls-1{fill:#ffd400;}.cls-2{fill:#fff;fill-opacity:0;opacity:0;}.cls-3{fill:#0083ca;}.cls-4{fill:#00416b;}.cls-5{fill:#ffc20e;}</style></defs><title>busca-cor</title><g id="Camada_2" data-name="Camada 2"><g id="Ícones_Personalizados" data-name="Ícones Personalizados"><g id="busca"><path class="cls-1" d="M57.64,18.36A27.92,27.92,0,1,0,63.94,36,27.87,27.87,0,0,0,57.64,18.36ZM36,56.06A20,20,0,1,1,56.06,36,19.9,19.9,0,0,1,36,56.06Z"/><rect class="cls-2" width="96" height="96"/><rect class="cls-3" x="57.48" y="49.42" width="8" height="24.19" rx="4" ry="4" transform="translate(-25.49 61.49) rotate(-45)"/><rect class="cls-4" x="62.98" y="56.87" width="16" height="28.28" rx="4" ry="4" transform="translate(-29.42 70.99) rotate(-45)"/><path class="cls-5" d="M63.94,36A27.92,27.92,0,0,1,18.36,57.64L24,52A20,20,0,0,0,52,24l5.61-5.61A27.81,27.81,0,0,1,63.94,36Z"/></g></g></g></svg>