<?xml version="1.0" encoding="UTF-8"?>
<svg width="60px" height="60px" viewBox="0 0 60 60" version="1.1" xmlns="http://www.w3.org/2000/svg" xmlns:xlink="http://www.w3.org/1999/xlink">
    <!-- Generator: sketchtool 52.6 (67491) - http://www.bohemiancoding.com/sketch -->
    <title>3EB82ABD-62C8-4694-BE88-AF8AED4EBEA2</title>
    <desc>Created with sketchtool.</desc>
    <g id="Symbols" stroke="none" stroke-width="1" fill="none" fill-rule="evenodd">
        <g id="footer-/-desktop-reduzido" transform="translate(-130.000000, -61.000000)">
            <g id="footer">
                <g id="Group" transform="translate(130.000000, 60.000000)">
                    <g id="logo-/-primary-/-pink" transform="translate(0.000000, 1.000000)">
                        <path d="M56.5374279,22.0380931 C52.4477162,18.712816 45.4338359,18.4741463 43.4235033,16.5470953 C41.4967184,14.5363636 41.2576497,7.52248337 37.9325055,3.43250554 C36.3033259,1.42922395 33.705765,0.0755654102 29.9708647,0.0749002217 C26.2356984,0.0755654102 23.6390687,1.42922395 22.009357,3.43250554 C18.6840798,7.52248337 18.441153,14.5321064 16.5186253,16.5470953 C15.4498004,17.6675388 11.1778271,18.6391131 10.316408,18.8905543 C9.15525499,19.2290022 5.74496674,20.1262084 3.36864745,22.0380931 C1.35645233,23.6563636 0.0110421286,26.2640355 0.0107760532,29.9993348 C0.0110421286,33.734235 1.36470067,36.3311308 3.36864745,37.9605765 C7.45796009,41.2863858 14.4721064,41.5247894 16.4825721,43.4515743 C18.409357,45.4619069 18.6480266,52.4759202 21.9734368,56.565765 C23.6026164,58.5693126 26.1999113,59.9231042 29.9348115,59.9233703 C33.6699778,59.9231042 36.2670067,58.5693126 37.8963193,56.565765 C41.2218625,52.4759202 41.4602661,45.4619069 43.387051,43.4515743 C44.6314856,42.2588914 47.7920621,41.7102439 50.9897561,40.6780044 C50.9949446,40.6762749 54.5340133,39.6435033 56.5374279,37.9605765 C58.5146341,36.2996009 59.8949002,33.734235 59.8952993,29.9993348 C59.8949002,26.2640355 58.5412417,23.6671397 56.5374279,22.0380931" id="Fill-1" fill="#E50091"></path>
                        <path d="M30.5691353,31.6756098 C30.5550333,31.5576053 30.5489135,31.4409313 30.5489135,31.3219956 C30.5767184,29.7111752 31.9005765,28.4208426 33.5145898,28.4455876 C34.3922395,28.4603548 35.1751663,28.8618625 35.7002661,29.4826164 L30.5691353,31.6756098 Z M33.5477162,26.4102439 C30.8071397,26.3667406 28.5520177,28.5517517 28.5114412,31.2907317 C28.496408,32.3155211 28.7958758,33.2744568 29.3167184,34.0725499 L38.2968958,30.2341463 C37.792949,28.0704213 35.8661641,26.4453659 33.5477162,26.4102439 Z M46.7615521,33.9993792 C45.3093126,33.3014634 44.6949446,31.5545455 45.3940576,30.1028381 L43.5541463,29.2206652 C42.3681153,31.6885144 43.408204,34.6501996 45.8765854,35.8378271 C47.7533481,36.7383592 49.9148115,36.3533481 51.3642572,35.032949 L49.9918404,33.5253659 C49.1378714,34.3013747 47.8661641,34.5290022 46.7615521,33.9993792 Z M50.1751663,26.8945011 C48.2970732,25.9952993 46.1389357,26.3785809 44.6872284,27.7011086 L46.0601774,29.2084257 C46.9136142,28.4306874 48.1874501,28.2047894 49.2915299,28.7342794 C50.7437694,29.4324612 51.3578714,31.1781818 50.657694,32.6306874 L52.4952106,33.5149889 C53.6821729,31.0468736 52.6418182,28.0823947 50.1751663,26.8945011 Z M33.4253215,34.2886031 C32.8677605,34.2783592 32.3533038,34.1123282 31.9166741,33.8353437 L30.8268293,35.5620399 C31.5718404,36.0315299 32.4512195,36.3102439 33.3933925,36.3236807 C34.7672727,36.3448337 36.0240798,35.8025721 36.9371175,34.9136142 L35.5086918,33.4507317 C34.9710865,33.9767627 34.2376497,34.3013747 33.4253215,34.2886031 Z M41.114235,24.1742794 L39.222306,24.1742794 L39.222306,33.7754767 C39.222306,34.2961863 39.3541463,34.6829268 39.5380044,34.9617738 C39.7283814,35.2390244 39.9768958,35.4864745 40.3495344,35.6453215 L41.9914856,36.3236807 L42.7745455,34.4376053 L41.114235,33.7490022 L41.114235,24.1742794 Z M11.0820399,24.1742794 L9.18824834,24.1742794 L9.18824834,33.7754767 C9.18824834,34.2961863 9.32447894,34.6829268 9.50687361,34.9617738 C9.69631929,35.2390244 9.94656319,35.4864745 10.3161419,35.6453215 L11.9568958,36.3236807 L12.744878,34.4376053 L11.0820399,33.7490022 L11.0820399,24.1742794 Z M15.7992905,28.0692239 L14.1570732,27.3875388 L13.3714856,29.2736142 L15.0336585,29.9615521 L15.0336585,36.1581818 L16.9255876,36.1581818 L16.9255876,29.9370732 C16.9255876,29.4178271 16.7942794,29.0306874 16.6085588,28.7507761 C16.4195122,28.475255 16.1700665,28.2299335 15.7992905,28.0692239 Z M15.988071,24.0014634 C15.2384035,24.0014634 14.6297561,24.6101109 14.6297561,25.3617738 C14.6297561,26.1130377 15.2384035,26.7252772 15.988071,26.7252772 C16.7413304,26.7252772 17.3501109,26.1130377 17.3501109,25.3617738 C17.3501109,24.6101109 16.7413304,24.0014634 15.988071,24.0014634 Z M23.4884701,33.458714 L21.465898,28.0621729 C21.465898,28.0621729 21.2318847,27.3997783 20.5097561,27.0999113 L19.2496231,26.5760089 L18.4656319,28.4636807 L19.8013304,29.0208426 L22.4768514,36.1581818 L24.50102,36.1581818 L28.0346341,26.7252772 L26.0111308,26.7252772 L23.4884701,33.458714 Z" id="Fill-2" fill="#FFFFFE"></path>
                    </g>
                </g>
            </g>
        </g>
    </g>
</svg>