<svg xmlns="http://www.w3.org/2000/svg" width="1181" height="387" viewBox="0 0 1181 387"><path d="M74.093 282.482L73.8 182.257l-36.835-.302-36.835-.301v-11.405l80.809.293 80.808.293.348 5.425.348 5.426H88.078v201.02H74.385z" fill="#081e3f" stroke-width="1.142"/><path d="M173.48 384.357c-16.784-4.069-27.959-14.576-33.619-31.612-1.774-5.341-2.044-12.524-2.4-63.981l-.403-57.965h11.555v54.013c0 44.192.31 55.202 1.704 60.554 3.629 13.932 10.163 22.46 21.081 27.512 4.442 2.055 7.357 2.405 20.046 2.405 14.337 0 15.114-.126 22.568-3.657 10.074-4.772 18.986-13.297 24.127-23.08 7.515-14.301 7.837-16.984 8.394-70.062l.5-47.685h11.228v151.908h-11.357l-.318-15.705-.318-15.705-3.278 6.23c-6.472 12.297-20.605 22.9-35.72 26.797-8.537 2.201-24.78 2.217-33.79.033zm148.483.073c-12.965-3.287-23.584-10.434-32.428-21.823-11.85-15.26-17.815-41.395-15.326-67.15 2.165-22.413 7.956-36.843 19.841-49.442 12.656-13.416 26.465-19.016 47.018-19.068 13.192-.034 21.479 2.008 32.118 7.913 8.147 4.522 18.392 15.088 22.273 22.971l2.717 5.52.299-46.606.298-46.605 5.412.347 5.413.348.291 105.936.292 105.936h-11.434v-15.42c0-8.48-.385-15.415-.856-15.41-.471.005-1.99 1.994-3.376 4.421-3.693 6.468-13.266 16.535-19.574 20.583-9.634 6.182-17.509 8.293-32.73 8.775-9.513.3-15.709-.074-20.248-1.225zm36.421-10.658c16.475-5.143 28.504-18.153 35.193-38.063 4.186-12.457 5.275-34.01 2.473-48.944-3.718-19.826-15.968-37.7-30.756-44.876-18.164-8.815-43.164-6.007-58.516 6.573-14.379 11.782-23.982 40.885-21.667 65.66 2.879 30.803 17.185 52.493 39.286 59.564 8.763 2.804 25.148 2.845 33.987.086zm218.649 5.813c2.8-7.32 54.738-146.328 65.936-176.472l12.195-32.825 28.504.273 28.505.274 9.599 25.699c5.279 14.134 22.905 61.273 39.168 104.754 16.264 43.48 29.57 79.596 29.57 80.257 0 .816-9.194 1.103-28.703.896l-28.703-.305-6.345-18.576-6.345-18.575-37.036.3-37.036.301-2.125 5.711c-1.169 3.141-4.096 11.365-6.504 18.275l-4.38 12.564-28.754.305-28.754.305zm129.18-76.292c.53-.529-7.386-26.63-19.04-62.786l-3.682-11.422-11.594 35.48c-6.376 19.514-11.594 36.347-11.594 37.406 0 1.742 2.166 1.926 22.653 1.926 12.46 0 22.925-.272 23.258-.604zm88.867 59.717v-19.695l37.97-37.984 37.97-37.983h-70.23v-38.834h135.918v38.276l-38.27 38.256-38.27 38.256 40.84.571 40.84.571.313 19.132.313 19.13H795.079zm190.919 22.208c-15.283-3.316-25.231-10.801-31.547-23.733-6.795-13.915-7.465-21.173-7.465-80.883v-52.39h50.256v45.307c0 52.286.565 57.863 6.538 64.475 4.489 4.968 9.345 6.715 18.59 6.687 7.958-.024 14.217-2.848 19.637-8.86 7.449-8.26 7.774-10.863 7.774-62.13v-45.48h51.398v154.194h-49.114v-20.48l-7.71 7.67c-15.203 15.126-35.55 20.574-58.357 15.624zm126.602-108.733V170.264h50.256v212.443H1112.6z" fill="#081e3f" stroke-width="1.142"/><path d="M897.024 101.053l-17.703 38.834 33.694-10.851z" fill="#091e3f"/><path d="M1180.92.22H867.613l-54.538 21.167 57.68 49.684zM897.024 101.053L1180.92.221l-176.532 152.8-66.817 21.416z" fill="#66cadf"/><path d="M879.32 139.887l-8.566-68.816L1180.92.221 897.024 101.053z" fill="#1781c4"/><path d="M491.51 385.767c-7.92-.915-7.074-.766-12.72-2.234-1.445-.376-2.99-.823-3.433-.994-.445-.17-1.626-.626-2.625-1.01-4.431-1.708-12.88-6.269-13.259-7.157-.074-.174-.377-.317-.673-.317-.296 0-.599-.137-.673-.305-.074-.169-.952-.925-1.952-1.682-2.589-1.96-8.39-7.883-10.512-10.733-.992-1.332-1.94-2.483-2.107-2.557a.539.539 0 01-.303-.445c0-.17-.824-1.564-1.83-3.096-2.2-3.348-4.754-8.53-6.845-13.89l-1.024-2.626c-.476-1.218-1.83-6.213-2.793-10.297-2.575-10.927-2.865-29.71-.627-40.583.365-1.777.813-3.958.994-4.846.182-.889.632-2.615 1-3.837.368-1.221.767-2.675.887-3.23.226-1.056 1.121-3.34 1.778-4.538.211-.385.386-.93.39-1.211.002-.28.908-2.327 2.013-4.548s2.01-4.266 2.014-4.543c.003-.278.166-.505.362-.505.196 0 .463-.318.594-.707.23-.687 1.064-2.116 1.472-2.524.111-.11 1.069-1.497 2.129-3.08 3.361-5.019 7.803-9.684 13.216-13.879 1-.775 1.878-1.546 1.952-1.714.074-.168.392-.306.706-.306.315 0 .573-.182.573-.404 0-.222.212-.404.473-.404.26 0 .76-.254 1.11-.564 1.183-1.048 8.091-4.685 8.899-4.685.237 0 .747-.163 1.133-.363.385-.199 1.519-.672 2.518-1.05 1-.38 2.133-.852 2.518-1.052.386-.199 1.147-.362 1.69-.362.544 0 1.5-.197 2.126-.438 3.774-1.456 15.826-2.52 22.337-1.973 7.922.665 14.047 1.745 16.248 2.863.386.195.97.356 1.299.356.329 0 1.285.297 2.125.661.84.364 1.892.803 2.336.975 4.342 1.68 11.54 5.887 15.293 8.938 2.684 2.181 8.116 7.647 10.16 10.222.882 1.11 1.74 2.08 1.906 2.154.166.074.303.377.303.673 0 .296.142.599.316.673.996.424 6.834 11.214 8.375 15.48.402 1.11.882 2.191 1.067 2.402.185.211.337.714.337 1.116 0 .403.16 1.048.354 1.434.356.708 1.264 3.784 1.994 6.758.218.889.626 2.524.906 3.635 1.474 5.85 2.234 18.45 1.66 27.524-.59 9.345-1.535 16.043-2.536 18-.197.386-.359 1.065-.359 1.509 0 .765-1.802 6.534-2.846 9.112-.267.658-.625 1.56-.795 2.004-.171.444-.768 1.807-1.328 3.029a160.097 160.097 0 00-1.27 2.827c-.306.73-.542 1.126-3.73 6.268-1.375 2.216-2.829 4.393-3.231 4.837-.402.444-1.237 1.485-1.856 2.313-2.78 3.722-13.7 13.234-15.192 13.234-.243 0-.443.136-.445.302-.002.167-.41.505-.909.751-.498.246-2.359 1.173-4.136 2.059-4.231 2.11-10.54 4.398-13.931 5.054-9.152 1.77-17.08 2.282-23.624 1.526zm17.22-9.933c1.253-.312 2.742-.567 3.308-.567.565 0 1.14-.182 1.277-.404.138-.222.774-.404 1.414-.404.64 0 1.267-.167 1.394-.372.127-.206.813-.501 1.525-.658.712-.156 1.573-.427 1.913-.602.34-.175 2.067-1.015 3.837-1.867 1.77-.852 4.86-2.703 6.865-4.115 3.448-2.426 10.02-8.698 11.464-10.941a20.938 20.938 0 011.47-1.962c.809-.932 2.376-3.38 2.896-4.52.152-.333.38-.696.508-.807.392-.342 2.055-3.525 3.374-6.461 1.393-3.098 1.895-4.368 2.552-6.461.314-1 .78-2.453 1.035-3.23.96-2.917 1.637-5.88 2.677-11.711.993-5.566.974-22.803-.032-28.47-1.407-7.92-2.23-11.537-2.754-12.094-.199-.21-.362-.79-.362-1.288s-.181-1.018-.403-1.155c-.223-.137-.404-.53-.404-.871 0-.342-.291-1.286-.647-2.096a114.76 114.76 0 01-.974-2.282c-1.573-3.88-4.124-8.56-6.576-12.064-2.166-3.097-7.498-9.539-7.898-9.544-.143-.002-.896-.605-1.673-1.34-3.564-3.367-13.726-9.522-15.77-9.55-.343-.006-.798-.168-1.009-.362-.389-.356-3.331-1.258-6.643-2.035-6.957-1.633-18.785-1.65-25.44-.038-3.698.895-6.699 1.786-7.047 2.09a1.583 1.583 0 01-.897.335c-1.151 0-10.925 5.3-11.843 6.421-.111.136-.929.78-1.817 1.433-3.002 2.204-9.052 8.785-11.67 12.693-2.456 3.668-6.704 11.621-6.704 12.553 0 .235-.16.744-.354 1.13-.92 1.82-1.665 3.824-1.665 4.483 0 .4-.13.857-.289 1.016-.505.505-1.88 6.001-2.538 10.143a81.202 81.202 0 01-.847 4.442c-.755 3.294-.62 21.534.187 25.238.363 1.666.66 3.609.66 4.317 0 .71.182 1.401.404 1.539.222.137.404.71.404 1.274 0 .999.937 4.781 1.585 6.398.178.444.637 1.807 1.019 3.029 1.152 3.679 4.04 9.896 6.147 13.233.74 1.17 1.344 2.29 1.344 2.49 0 .199.137.423.303.497.167.074 1.1 1.225 2.074 2.557 2.53 3.463 9.559 10.347 12.433 12.177.627.4 1.232.822 1.343.938.765.8 9.14 4.927 11.71 5.77 4.68 1.534 9.032 2.446 13.125 2.749 4.946.366 13.234.017 16.009-.674z" fill="#091e3f" stroke-width=".404"/></svg>