<svg width="2080" height="2062" viewBox="0 0 2080 2062" fill="none" xmlns="http://www.w3.org/2000/svg">
<path fill-rule="evenodd" clip-rule="evenodd" d="M1040.23 0.513306L17.5676 685.965L443.222 962.364L951.793 619.625L750.061 487.113L1026.38 301.983L1625.99 699.882L642.295 1360.28L855.064 1501.19L2079.14 686.069L2076.38 683.307L1040.23 0.513306V0.513306ZM2060.06 0.798657L1634.55 282.645L1847.3 426.324L2060.06 282.645V0.798657ZM10.5509 2061.5L436.076 1779.67L223.32 1635.97L10.5509 1779.67V2061.5V2061.5Z" fill="#33348E"/>
<path fill-rule="evenodd" clip-rule="evenodd" d="M1039.77 2060.92L2062.42 1375.45L1636.78 1099.05L1128.22 1441.79L1329.93 1574.3L1053.62 1759.45L454.013 1361.53L1437.69 701.153L1224.94 560.224L0.849487 1375.35L3.61204 1378.14L1039.77 2060.92V2060.92Z" fill="#33348E"/>
</svg>
